<svg xmlns="http://www.w3.org/2000/svg" width="512" height="512" viewBox="0 0 512 512">
  <rect width="512" height="512" rx="64" fill="#2563eb"/>
  <g transform="translate(256,256) scale(12)" fill="none" stroke="#ffffff" stroke-width="2" stroke-linecap="round" stroke-linejoin="round">
    <polyline points="6 9 6 2 18 2 18 9" transform="translate(-12,-12)"/>
    <path d="M6 18H4a2 2 0 0 1-2-2v-5a2 2 0 0 1 2-2h16a2 2 0 0 1 2 2v5a2 2 0 0 1-2 2h-2" transform="translate(-12,-12)"/>
    <rect width="12" height="8" x="6" y="14" transform="translate(-12,-12)"/>
  </g>
</svg>
